<svg width="42" height="30" viewBox="0 0 42 30" fill="none" xmlns="http://www.w3.org/2000/svg">
<g clip-path="url(#clip0_3_68)">
<path d="M30.7755 18.1034H33.5646C33.6443 18.1034 33.8303 18.0771 33.91 18.0771C34.4413 17.9719 34.8928 17.4985 34.8928 16.841C34.8928 16.2097 34.4413 15.7363 33.91 15.6048C33.8303 15.5785 33.6709 15.5785 33.5646 15.5785H30.7755V18.1034Z" fill="white"/>
<path d="M33.2459 0.665649C30.5895 0.665649 28.4113 2.79606 28.4113 5.45251V10.4235H35.2382C35.3975 10.4235 35.5835 10.4235 35.7163 10.4498C37.257 10.5287 38.3992 11.3177 38.3992 12.6854C38.3992 13.7638 37.6289 14.6843 36.1945 14.8684V14.921C37.7617 15.0262 38.9571 15.8942 38.9571 17.2355C38.9571 18.6821 37.6289 19.629 35.8757 19.629H28.3847V29.3605H35.4772C38.1336 29.3605 40.3118 27.2301 40.3118 24.5736V0.665649H33.2459Z" fill="white"/>
<path d="M34.5475 13.001C34.5475 12.3698 34.0959 11.949 33.5646 11.8701C33.5115 11.8701 33.3787 11.8438 33.299 11.8438H30.7755V14.1583H33.299C33.3787 14.1583 33.5381 14.1583 33.5646 14.132C34.0959 14.0531 34.5475 13.6322 34.5475 13.001Z" fill="white"/>
<path d="M6.52273 0.665649C3.86635 0.665649 1.68812 2.79606 1.68812 5.45251V17.2618C3.04288 17.9194 4.45076 18.3402 5.85864 18.3402C7.53216 18.3402 8.43532 17.3408 8.43532 15.9731V10.3972H12.5793V15.9468C12.5793 18.1035 11.2245 19.8657 6.62899 19.8657C3.83979 19.8657 1.66156 19.2608 1.66156 19.2608V29.3342H8.75409C11.4105 29.3342 13.5887 27.2038 13.5887 24.5473V0.665649H6.52273Z" fill="white"/>
<path d="M19.8843 0.665649C17.2279 0.665649 15.0497 2.79607 15.0497 5.45251V11.7122C16.2716 10.6865 18.3967 10.029 21.8234 10.1868C23.6563 10.2657 25.6221 10.7654 25.6221 10.7654V12.7906C24.6392 12.2909 23.4704 11.8438 21.9563 11.7385C19.353 11.5544 17.7857 12.8169 17.7857 15.0262C17.7857 17.2619 19.353 18.5243 21.9563 18.3139C23.4704 18.2087 24.6392 17.7353 25.6221 17.2619V19.2871C25.6221 19.2871 23.6829 19.7868 21.8234 19.8657C18.3967 20.0235 16.2716 19.366 15.0497 18.3402V29.3868H22.1422C24.7986 29.3868 26.9768 27.2564 26.9768 24.5999V0.665649H19.8843Z" fill="white"/>
</g>
<defs>
<clipPath id="clip0_3_68">
<rect width="42" height="30" fill="white"/>
</clipPath>
</defs>
</svg>
