<?xml version="1.0" encoding="utf-8"?>
<!-- Generator: Adobe Illustrator 23.0.1, SVG Export Plug-In . SVG Version: 6.00 Build 0)  -->
<svg version="1.1" id="Layer_1" xmlns="http://www.w3.org/2000/svg" xmlns:xlink="http://www.w3.org/1999/xlink" x="0px" y="0px"
	 viewBox="0 0 230 150" style="enable-background:new 0 0 230 150;" xml:space="preserve">
<style type="text/css">
	.st0{filter:url(#Adobe_OpacityMaskFilter);}
	.st1{fill-rule:evenodd;clip-rule:evenodd;fill:#FFFFFF;}
	.st2{mask:url(#mask-2_1_);fill:#FFFFFF;}
	.st3{filter:url(#Adobe_OpacityMaskFilter_1_);}
	.st4{mask:url(#mask-5_1_);fill:#FFFFFF;}
	.st5{filter:url(#Adobe_OpacityMaskFilter_2_);}
	.st6{mask:url(#mask-8_1_);fill:#FFFFFF;}
	.st7{filter:url(#Adobe_OpacityMaskFilter_3_);}
	.st8{mask:url(#mask-11_1_);fill:#FFFFFF;}
	.st9{filter:url(#Adobe_OpacityMaskFilter_4_);}
	.st10{mask:url(#mask-14_1_);fill:#FFFFFF;}
	.st11{filter:url(#Adobe_OpacityMaskFilter_5_);}
	.st12{mask:url(#mask-17_1_);fill:#FFFFFF;}
	.st13{fill:#FFFFFF;}
</style>
<defs>
	<filter id="Adobe_OpacityMaskFilter" filterUnits="userSpaceOnUse" x="164.8" y="-0.6" width="64.6" height="89.1">
		<feColorMatrix  type="matrix" values="1 0 0 0 0  0 1 0 0 0  0 0 1 0 0  0 0 0 1 0"/>
	</filter>
</defs>
<mask maskUnits="userSpaceOnUse" x="164.8" y="-0.6" width="64.6" height="89.1" id="mask-2_1_">
	<g class="st0">
		<path id="path-1_1_" class="st1" d="M173.4,14.1c7.9-2.2,15.8-4.5,23.7-6.7c7.9-2.2,15.8-4.5,23.7-6.7c4.7-1.3,8.6,5.8,8.6,15.8
			c0,9.1,0,18.3,0,27.4c0,9.1,0,18.3,0,27.4c0,10-3.9,17.2-8.6,15.8c-7.9-2.2-15.8-4.5-23.7-6.7c-7.9-2.2-15.8-4.5-23.7-6.7
			c-4.7-1.3-8.6-7.4-8.6-13.4c0-5.5,0-11,0-16.4c0-5.5,0-10.9,0-16.4C164.8,21.5,168.6,15.4,173.4,14.1"/>
	</g>
</mask>
<polygon id="Rectangle-path" class="st2" points="164.8,-0.6 229.3,-0.6 229.3,88.5 164.8,88.5 "/>
<defs>
	<filter id="Adobe_OpacityMaskFilter_1_" filterUnits="userSpaceOnUse" x="0.8" y="-0.6" width="64.6" height="89.1">
		<feColorMatrix  type="matrix" values="1 0 0 0 0  0 1 0 0 0  0 0 1 0 0  0 0 0 1 0"/>
	</filter>
</defs>
<mask maskUnits="userSpaceOnUse" x="0.8" y="-0.6" width="64.6" height="89.1" id="mask-5_1_">
	<g class="st3">
		<path id="path-4_1_" class="st1" d="M56.7,14.1C48.8,11.9,40.9,9.6,33,7.4C25.2,5.2,17.3,2.9,9.4,0.7C4.6-0.6,0.8,6.5,0.8,16.5
			c0,9.1,0,18.3,0,27.4c0,9.1,0,18.3,0,27.4c0,10,3.9,17.2,8.6,15.8c7.9-2.2,15.8-4.5,23.7-6.7c7.9-2.2,15.8-4.5,23.7-6.7
			c4.7-1.3,8.6-7.4,8.6-13.4c0-5.5,0-11,0-16.4c0-5.5,0-10.9,0-16.4C65.3,21.5,61.4,15.4,56.7,14.1"/>
	</g>
</mask>
<rect x="0.8" y="-0.6" class="st4" width="64.6" height="89.1"/>
<defs>
	<filter id="Adobe_OpacityMaskFilter_2_" filterUnits="userSpaceOnUse" x="127.4" y="-0.6" width="32.3" height="89.1">
		<feColorMatrix  type="matrix" values="1 0 0 0 0  0 1 0 0 0  0 0 1 0 0  0 0 0 1 0"/>
	</filter>
</defs>
<mask maskUnits="userSpaceOnUse" x="127.4" y="-0.6" width="32.3" height="89.1" id="mask-8_1_">
	<g class="st5">
		<path id="path-7_1_" class="st1" d="M131.7,14.1c3.9-2.2,7.9-4.5,11.8-6.7c3.9-2.2,7.9-4.5,11.8-6.7c2.4-1.3,4.3,5.8,4.3,15.8
			c0,9.1,0,18.3,0,27.4c0,9.1,0,18.3,0,27.4c0,10-1.9,17.2-4.3,15.8c-3.9-2.2-7.9-4.5-11.8-6.7c-3.9-2.2-7.9-4.5-11.8-6.7
			c-2.4-1.3-4.3-7.4-4.3-13.4c0-5.5,0-11,0-16.4c0-5.5,0-10.9,0-16.4C127.4,21.5,129.4,15.4,131.7,14.1"/>
	</g>
</mask>
<rect x="127.4" y="-0.6" class="st6" width="32.3" height="89.1"/>
<defs>
	<filter id="Adobe_OpacityMaskFilter_3_" filterUnits="userSpaceOnUse" x="70.4" y="-0.6" width="32.3" height="89.1">
		<feColorMatrix  type="matrix" values="1 0 0 0 0  0 1 0 0 0  0 0 1 0 0  0 0 0 1 0"/>
	</filter>
</defs>
<mask maskUnits="userSpaceOnUse" x="70.4" y="-0.6" width="32.3" height="89.1" id="mask-11_1_">
	<g class="st7">
		<path id="path-10_1_" class="st1" d="M98.3,14.1c-3.9-2.2-7.9-4.5-11.8-6.7c-3.9-2.2-7.9-4.5-11.8-6.7c-2.4-1.3-4.3,5.8-4.3,15.8
			c0,9.1,0,18.3,0,27.4c0,9.1,0,18.3,0,27.4c0,10,1.9,17.2,4.3,15.8c3.9-2.2,7.9-4.5,11.8-6.7c3.9-2.2,7.9-4.5,11.8-6.7
			c2.4-1.3,4.3-7.4,4.3-13.4c0-5.5,0-11,0-16.4c0-5.5,0-10.9,0-16.4C102.6,21.5,100.7,15.4,98.3,14.1"/>
	</g>
</mask>
<polygon class="st8" points="70.4,-0.6 102.6,-0.6 102.6,88.5 70.4,88.5 "/>
<defs>
	<filter id="Adobe_OpacityMaskFilter_4_" filterUnits="userSpaceOnUse" x="117.6" y="-0.6" width="4.8" height="89.1">
		<feColorMatrix  type="matrix" values="1 0 0 0 0  0 1 0 0 0  0 0 1 0 0  0 0 0 1 0"/>
	</filter>
</defs>
<mask maskUnits="userSpaceOnUse" x="117.6" y="-0.6" width="4.8" height="89.1" id="mask-14_1_">
	<g class="st9">
		<path id="path-13_1_" class="st1" d="M118.2,14.1c0.6-2.2,1.2-4.5,1.8-6.7c0.6-2.2,1.2-4.5,1.8-6.7c0.4-1.3,0.6,5.8,0.6,15.8
			c0,9.1,0,18.3,0,27.4c0,9.1,0,18.3,0,27.4c0,10-0.3,17.2-0.6,15.8c-0.6-2.2-1.2-4.5-1.8-6.7c-0.6-2.2-1.2-4.5-1.8-6.7
			c-0.4-1.3-0.6-7.4-0.6-13.4c0-5.5,0-11,0-16.4c0-5.5,0-10.9,0-16.4C117.6,21.5,117.8,15.4,118.2,14.1"/>
	</g>
</mask>
<polygon class="st10" points="117.6,-0.6 122.4,-0.6 122.4,88.5 117.6,88.5 "/>
<defs>
	<filter id="Adobe_OpacityMaskFilter_5_" filterUnits="userSpaceOnUse" x="107.7" y="-0.6" width="4.8" height="89.1">
		<feColorMatrix  type="matrix" values="1 0 0 0 0  0 1 0 0 0  0 0 1 0 0  0 0 0 1 0"/>
	</filter>
</defs>
<mask maskUnits="userSpaceOnUse" x="107.7" y="-0.6" width="4.8" height="89.1" id="mask-17_1_">
	<g class="st11">
		<path id="path-16_1_" class="st1" d="M111.9,14.1c-0.6-2.2-1.2-4.5-1.8-6.7c-0.6-2.2-1.2-4.5-1.8-6.7c-0.4-1.3-0.6,5.8-0.6,15.8
			c0,9.1,0,18.3,0,27.4c0,9.1,0,18.3,0,27.4c0,10,0.3,17.2,0.6,15.8c0.6-2.2,1.2-4.5,1.8-6.7c0.6-2.2,1.2-4.5,1.8-6.7
			c0.4-1.3,0.6-7.4,0.6-13.4c0-5.5,0-11,0-16.4c0-5.5,0-10.9,0-16.4C112.5,21.5,112.2,15.4,111.9,14.1"/>
	</g>
</mask>
<polygon class="st12" points="107.7,-0.6 112.5,-0.6 112.5,88.5 107.7,88.5 "/>
<path id="Shape" class="st13" d="M200.7,120.2c-0.5-0.1-1-0.1-1.6-0.2c-0.6,0-1.3-0.1-2-0.1c-2.3,0-4.4,0.2-6.3,0.6
	c-1.9,0.4-3.6,0.9-5.1,1.4v26.5h7v-22.2c0.4-0.2,1-0.3,1.6-0.4c0.6-0.1,1.3-0.1,1.9-0.1c0.6,0,1.1,0,1.7,0.1c0.5,0.1,1,0.2,1.5,0.3
	L200.7,120.2z"/>
<path class="st13" d="M182.2,127.4c-0.5-1.6-1.3-2.9-2.3-4c-1-1.1-2.3-2-3.8-2.6c-1.5-0.6-3.2-0.9-5.1-0.9c-2,0-3.9,0.4-5.4,1.1
	c-1.6,0.7-2.9,1.7-4.1,3c-1.1,1.3-2,2.8-2.5,4.6c-0.6,1.8-0.9,3.7-0.9,5.9c0,2.2,0.3,4.1,0.9,5.9c0.6,1.8,1.5,3.3,2.7,4.6
	c1.2,1.3,2.6,2.3,4.4,3c1.8,0.7,3.8,1.1,6.1,1.1c1.4,0,2.7-0.1,3.9-0.3c1.3-0.2,2.5-0.4,3.5-0.7c1.1-0.3,2-0.7,2.8-1.1l-2-5.3
	c-0.7,0.3-1.4,0.7-2.3,0.9c-0.8,0.3-1.7,0.5-2.7,0.6c-0.9,0.1-1.9,0.2-2.8,0.2c-1.4,0-2.6-0.2-3.7-0.7c-1.1-0.4-2-1.1-2.7-2
	c-0.7-0.9-1.1-2-1.4-3.4l18-2.4c0.1-0.4,0.1-2,0.1-2.4C183,130.7,182.7,129,182.2,127.4z M164.4,133c0-1.7,0.3-3.2,0.9-4.4
	c0.5-1.2,1.3-2.1,2.2-2.7c0.9-0.6,2-0.9,3.3-0.9c1.1,0,2,0.2,2.8,0.7c0.8,0.5,1.4,1.2,1.8,2.1c0.4,0.9,0.7,2.1,0.7,3.5L164.4,133z"
	/>
<polygon class="st13" points="148.1,107.8 155.1,107.8 155.1,148.5 148.1,148.5 "/>
<polygon class="st13" points="136.7,107.8 143.7,107.8 143.7,148.5 136.7,148.5 "/>
<path class="st13" d="M133.1,127.4c-0.5-1.6-1.3-2.9-2.3-4c-1-1.1-2.3-2-3.8-2.6c-1.5-0.6-3.2-0.9-5.1-0.9c-2,0-3.9,0.4-5.4,1.1
	c-1.6,0.7-2.9,1.7-4.1,3c-1.1,1.3-2,2.8-2.5,4.6c-0.6,1.8-0.9,3.7-0.9,5.9c0,2.2,0.3,4.1,0.9,5.9c0.6,1.8,1.5,3.3,2.7,4.6
	c1.2,1.3,2.6,2.3,4.4,3c1.8,0.7,3.8,1.1,6.1,1.1c1.4,0,2.7-0.1,3.9-0.3c1.3-0.2,2.5-0.4,3.5-0.7c1.1-0.3,2-0.7,2.8-1.1l-2-5.3
	c-0.7,0.3-1.4,0.7-2.3,0.9c-0.8,0.3-1.7,0.5-2.7,0.6c-0.9,0.1-1.9,0.2-2.8,0.2c-1.4,0-2.6-0.2-3.7-0.7c-1.1-0.4-2-1.1-2.7-2
	c-0.7-0.9-1.1-2-1.4-3.4l18-2.4c0.1-0.4,0.1-2,0.1-2.4C133.8,130.7,133.6,129,133.1,127.4z M115.3,133c0-1.7,0.3-3.2,0.9-4.4
	c0.5-1.2,1.3-2.1,2.2-2.7c0.9-0.6,2-0.9,3.3-0.9c1.1,0,2,0.2,2.8,0.7c0.8,0.5,1.4,1.2,1.8,2.1c0.4,0.9,0.7,2.1,0.7,3.5L115.3,133z"
	/>
<path class="st13" d="M108,148.1v-5.8c-0.2,0.1-0.5,0.2-0.9,0.3c-0.4,0.1-0.7,0.1-1.1,0.1c-0.6,0-1.2-0.1-1.6-0.3
	c-0.5-0.2-0.9-0.5-1.1-1c-0.3-0.4-0.4-1.1-0.4-1.8v-13.8h5.2v-5.3h-5.2v-8.2l-6.9,2v6.2h-3.6v5.3h3.6v14.2c0,2.9,0.6,5.1,1.9,6.6
	c1.3,1.5,3.3,2.2,6,2.2c0.6,0,1.1,0,1.7-0.1c0.5-0.1,1-0.2,1.5-0.3C107.3,148.4,107.7,148.2,108,148.1z"/>
<polygon class="st13" points="83.1,120.6 90.1,120.6 90.1,148.5 83.1,148.5 "/>
<path class="st13" d="M90.6,112.3c0-0.7-0.2-1.4-0.6-1.9c-0.4-0.6-0.8-1-1.4-1.3c-0.6-0.3-1.3-0.5-2-0.5c-0.7,0-1.4,0.2-2,0.5
	c-0.6,0.3-1.1,0.8-1.4,1.3c-0.4,0.6-0.5,1.2-0.6,1.9c0,0.7,0.2,1.4,0.6,1.9c0.4,0.6,0.8,1,1.4,1.4c0.6,0.3,1.3,0.5,2,0.5
	c0.8,0,1.4-0.2,2-0.5c0.6-0.3,1.1-0.8,1.4-1.4C90.4,113.7,90.6,113,90.6,112.3z"/>
<path class="st13" d="M79.2,148.5v-19.1c0-2-0.4-3.7-1.3-5.1c-0.9-1.4-2.2-2.5-4-3.2c-1.8-0.7-4.1-1.1-6.8-1.1
	c-2.3,0-4.4,0.2-6.2,0.6c-1.8,0.4-3.5,0.9-4.9,1.5v26.5h7v-22.2c0.5-0.2,1.1-0.3,1.8-0.5c0.7-0.1,1.5-0.2,2.4-0.2
	c1.6,0,2.8,0.4,3.7,1.2c0.8,0.8,1.3,1.9,1.3,3.3v18.4L79.2,148.5L79.2,148.5z"/>
<path class="st13" d="M52.2,147.1v-26.5h-7v22.1c-0.4,0.2-0.9,0.3-1.7,0.4c-0.7,0.1-1.5,0.2-2.4,0.2c-1.6,0-2.7-0.4-3.5-1.1
	c-0.8-0.7-1.2-1.8-1.2-3.3v-18.3h-7v18.2c0,2.4,0.4,4.4,1.3,5.9c0.9,1.5,2.2,2.7,3.9,3.4c1.7,0.7,3.9,1.1,6.5,1.1
	c1.5,0,2.9-0.1,4.3-0.3c1.4-0.2,2.7-0.4,3.8-0.7C50.4,147.8,51.4,147.5,52.2,147.1z"/>
</svg>
