<svg width="24px" height="72px" viewBox="0 0 24 72" version="1.1" xmlns="http://www.w3.org/2000/svg" xmlns:xlink="http://www.w3.org/1999/xlink">
    <g id="Artboard" stroke="none" stroke-width="1" fill="none" fill-rule="evenodd">
        <path d="M12,24 C5.372583,24 0,18.627417 0,12 C0,5.372583 5.372583,-7.10542736e-15 12,-7.10542736e-15 C18.627417,-7.10542736e-15 24,5.372583 24,12 C24,18.627417 18.627417,24 12,24 Z M12,22.2222222 C17.6455774,22.2222222 22.2222222,17.6455774 22.2222222,12 C22.2222222,6.35442256 17.6455774,1.77777778 12,1.77777778 C6.35442256,1.77777778 1.77777778,6.35442256 1.77777778,12 C1.77777778,17.6455774 6.35442256,22.2222222 12,22.2222222 Z M16.8954259,7.64701385 C17.2540147,7.28243432 17.8402585,7.27757788 18.204838,7.63616667 C18.5694175,7.99475546 18.574274,8.58099922 18.2156852,8.94557874 L10.9299955,16.3529862 C10.5671985,16.7218441 9.97253317,16.7218441 9.60973623,16.3529862 L5.78431482,12.4636557 C5.42572602,12.0990762 5.43058247,11.5128324 5.795162,11.1542436 C6.15974152,10.7956548 6.74598528,10.8005113 7.10457407,11.1650908 L10.2698659,14.3832632 L16.8954259,7.64701385 Z" id="Shape" fill="#008F4C" fill-rule="nonzero"></path>
        <path d="M12,48 C5.372583,48 0,42.627417 0,36 C0,29.372583 5.372583,24 12,24 C18.627417,24 24,29.372583 24,36 C24,42.627417 18.627417,48 12,48 Z M12,46.2222222 C17.6455774,46.2222222 22.2222222,41.6455774 22.2222222,36 C22.2222222,30.3544226 17.6455774,25.7777778 12,25.7777778 C6.35442256,25.7777778 1.77777778,30.3544226 1.77777778,36 C1.77777778,41.6455774 6.35442256,46.2222222 12,46.2222222 Z M16.8954259,31.6470138 C17.2540147,31.2824343 17.8402585,31.2775779 18.204838,31.6361667 C18.5694175,31.9947555 18.574274,32.5809992 18.2156852,32.9455787 L10.9299955,40.3529862 C10.5671985,40.7218441 9.97253317,40.7218441 9.60973623,40.3529862 L5.78431482,36.4636557 C5.42572602,36.0990762 5.43058247,35.5128324 5.795162,35.1542436 C6.15974152,34.7956548 6.74598528,34.8005113 7.10457407,35.1650908 L10.2698659,38.3832632 L16.8954259,31.6470138 Z" id="Shape-Copy" fill="#231F20" fill-rule="nonzero"></path>
        <path d="M12,72 C5.372583,72 0,66.627417 0,60 C0,53.372583 5.372583,48 12,48 C18.627417,48 24,53.372583 24,60 C24,66.627417 18.627417,72 12,72 Z M12,70.2222222 C17.6455774,70.2222222 22.2222222,65.6455774 22.2222222,60 C22.2222222,54.3544226 17.6455774,49.7777778 12,49.7777778 C6.35442256,49.7777778 1.77777778,54.3544226 1.77777778,60 C1.77777778,65.6455774 6.35442256,70.2222222 12,70.2222222 Z M16.8954259,55.6470138 C17.2540147,55.2824343 17.8402585,55.2775779 18.204838,55.6361667 C18.5694175,55.9947555 18.574274,56.5809992 18.2156852,56.9455787 L10.9299955,64.3529862 C10.5671985,64.7218441 9.97253317,64.7218441 9.60973623,64.3529862 L5.78431482,60.4636557 C5.42572602,60.0990762 5.43058247,59.5128324 5.795162,59.1542436 C6.15974152,58.7956548 6.74598528,58.8005113 7.10457407,59.1650908 L10.2698659,62.3832632 L16.8954259,55.6470138 Z" id="Shape-Copy-2" fill="#FFFFFF" fill-rule="nonzero"></path>
        <rect id="Rectangle-Copy-16" x="0" y="-7.10542736e-15" width="24" height="24"></rect>
        <rect id="Rectangle-Copy-17" x="0" y="24" width="24" height="24"></rect>
        <rect id="Rectangle-Copy-18" x="0" y="48" width="24" height="24"></rect>
    </g>
</svg>
