<?xml version="1.0" encoding="UTF-8"?>
<svg width="27px" height="25px" viewBox="0 0 27 25" version="1.1" xmlns="http://www.w3.org/2000/svg" xmlns:xlink="http://www.w3.org/1999/xlink">
    <!-- Generator: Sketch 52.3 (67297) - http://www.bohemiancoding.com/sketch -->
    <title>Shape</title>
    <desc>Created with Sketch.</desc>
    <g id="MOB" stroke="none" stroke-width="1" fill="none" fill-rule="evenodd">
        <g id="PROJECT-PAGE_mob" transform="translate(-32.000000, -2545.000000)" fill="#008F4C" fill-rule="nonzero">
            <path d="M34.0804896,2561.34099 L54.8301425,2561.34099 C56.0435166,2561.34099 57.0270369,2560.33406 57.0270369,2559.09186 L57.0270369,2549.26989 C57.0270369,2548.02831 56.0431286,2547.02077 54.8301425,2547.02077 L33.9729631,2547.02077 L33.9729631,2561.34692 C34.0082795,2561.343 34.0441552,2561.34099 34.0804896,2561.34099 Z M33.9729631,2568.98961 C33.9729631,2569.54763 33.5313003,2570 32.9864815,2570 C32.4416628,2570 32,2569.54763 32,2568.98961 L32,2546.01039 C32,2545.45237 32.4416628,2545 32.9864815,2545 L54.8301425,2545 C57.1326715,2545 59,2546.91217 59,2549.26989 L59,2559.09186 C59,2561.4503 57.132965,2563.36176 54.8301425,2563.36176 L34.0804896,2563.36176 C34.0441552,2563.36176 34.0082795,2563.35975 33.9729631,2563.35583 L33.9729631,2568.98961 Z M50.2157764,2554.39619 C50.2157764,2557.06401 48.1048794,2559.22685 45.5003946,2559.22685 C42.8958024,2559.22685 40.7840263,2557.0639 40.7840263,2554.39619 C40.7840263,2551.72859 42.8956949,2549.56654 45.5003946,2549.56654 C48.1049868,2549.56654 50.2157764,2551.72848 50.2157764,2554.39619 Z M48.2428133,2554.39619 C48.2428133,2552.84453 47.0153494,2551.58732 45.5003946,2551.58732 C43.9851709,2551.58732 42.7569894,2552.8448 42.7569894,2554.39619 C42.7569894,2555.94786 43.9854398,2557.20608 45.5003946,2557.20608 C47.0150805,2557.20608 48.2428133,2555.94813 48.2428133,2554.39619 Z" id="Shape"></path>
        </g>
    </g>
</svg>