<?xml version="1.0" encoding="UTF-8"?>
<svg width="42px" height="24px" viewBox="0 0 42 24" version="1.1" xmlns="http://www.w3.org/2000/svg" xmlns:xlink="http://www.w3.org/1999/xlink">
    <!-- Generator: Sketch 52.3 (67297) - http://www.bohemiancoding.com/sketch -->
    <title>Shape</title>
    <desc>Created with Sketch.</desc>
    <g id="MOB" stroke="none" stroke-width="1" fill="none" fill-rule="evenodd">
        <g id="PROJECT-PAGE_mob" transform="translate(-32.000000, -2811.000000)" fill="#008F4C" fill-rule="nonzero">
            <path d="M59.0304484,2816.89376 C59.0304484,2820.14869 56.3414095,2822.78753 53.0237266,2822.78753 C49.7067299,2822.78753 47.0170047,2820.14839 47.0170047,2816.89376 C47.0170047,2813.63847 49.7064151,2811 53.0237266,2811 C56.3417243,2811 59.0304484,2813.63816 59.0304484,2816.89376 Z M57.0282078,2816.89376 C57.0282078,2814.72317 55.2359173,2812.96459 53.0237266,2812.96459 C50.8121601,2812.96459 49.0192453,2814.72354 49.0192453,2816.89376 C49.0192453,2819.06337 50.8125369,2820.82294 53.0237266,2820.82294 C55.2355406,2820.82294 57.0282078,2819.06374 57.0282078,2816.89376 Z M63.0349296,2834.01771 C63.0349296,2834.56021 62.5867127,2835 62.0338093,2835 L44.0136438,2835 C43.4607404,2835 43.0125235,2834.56021 43.0125235,2834.01771 C43.0125235,2827.15728 45.271951,2824.19476 53.0237266,2824.19476 C60.7755021,2824.19476 63.0349296,2827.15728 63.0349296,2834.01771 Z M53.0237266,2826.15935 C46.9008804,2826.15935 45.2063275,2827.91638 45.0306242,2833.03541 L61.0168289,2833.03541 C60.8411256,2827.91638 59.1465727,2826.15935 53.0237266,2826.15935 Z M71.0409887,2819.96628 C71.0409887,2822.51376 68.9368118,2824.57914 66.3407289,2824.57914 C63.7444317,2824.57914 61.6384669,2822.51355 61.6384669,2819.96628 C61.6384669,2817.41912 63.7443244,2815.35441 66.3407289,2815.35441 C68.9369189,2815.35441 71.0409887,2817.41891 71.0409887,2819.96628 Z M69.0387481,2819.96628 C69.0387481,2818.50393 67.831112,2817.319 66.3407289,2817.319 C64.8497964,2817.319 63.6407075,2818.50447 63.6407075,2819.96628 C63.6407075,2821.42837 64.8500712,2822.61455 66.3407289,2822.61455 C67.8308372,2822.61455 69.0387481,2821.42891 69.0387481,2819.96628 Z M44.3617334,2819.96628 C44.3617334,2822.51376 42.2575564,2824.57914 39.6614736,2824.57914 C37.0652835,2824.57914 34.9602126,2822.51365 34.9602126,2819.96628 C34.9602126,2817.41902 37.0651763,2815.35441 39.6614736,2815.35441 C42.2576636,2815.35441 44.3617334,2817.41891 44.3617334,2819.96628 Z M42.3594928,2819.96628 C42.3594928,2818.50393 41.1518566,2817.319 39.6614736,2817.319 C38.1708157,2817.319 36.9624532,2818.5042 36.9624532,2819.96628 C36.9624532,2821.42864 38.1710905,2822.61455 39.6614736,2822.61455 C41.1515819,2822.61455 42.3594928,2821.42891 42.3594928,2819.96628 Z M40.9980693,2832.05351 C41.5509727,2832.05351 41.9991896,2832.4933 41.9991896,2833.0358 C41.9991896,2833.57831 41.5509727,2834.0181 40.9980693,2834.0181 L33.0011203,2834.0181 C32.4482168,2834.0181 32,2833.57831 32,2833.0358 C32,2827.83661 33.7676331,2825.51831 39.6605725,2825.51831 C40.5734722,2825.51831 41.3933302,2825.58132 42.1269887,2825.70675 C42.6716854,2825.79988 43.0363101,2826.30863 42.9414009,2826.84308 C42.8464916,2827.37754 42.3279885,2827.73531 41.7832918,2827.64218 C41.1689188,2827.53714 40.4631198,2827.4829 39.6605725,2827.4829 C35.401751,2827.4829 34.1940561,2828.60778 34.0243162,2832.05351 L40.9980693,2832.05351 Z M66.3404286,2827.4829 C65.5378813,2827.4829 64.8320823,2827.53714 64.2177093,2827.64218 C63.6730126,2827.73531 63.1545095,2827.37754 63.0596002,2826.84308 C62.964691,2826.30863 63.3293157,2825.79988 63.8740124,2825.70675 C64.6076709,2825.58132 65.427529,2825.51831 66.3404286,2825.51831 C72.2332536,2825.51831 74,2827.83609 74,2833.0358 C74,2833.57831 73.5517832,2834.0181 72.9988797,2834.0181 L65.0029319,2834.0181 C64.4500284,2834.0181 64.0018116,2833.57831 64.0018116,2833.0358 C64.0018116,2832.4933 64.4500284,2832.05351 65.0029319,2832.05351 L71.975704,2832.05351 C71.80609,2828.60731 70.5990552,2827.4829 66.3404286,2827.4829 Z" id="Shape"></path>
        </g>
    </g>
</svg>