<?xml version="1.0" encoding="UTF-8"?>
<svg width="40px" height="24px" viewBox="0 0 40 24" version="1.1" xmlns="http://www.w3.org/2000/svg" xmlns:xlink="http://www.w3.org/1999/xlink">
    <!-- Generator: Sketch 52.3 (67297) - http://www.bohemiancoding.com/sketch -->
    <title>Shape</title>
    <desc>Created with Sketch.</desc>
    <g id="MOB" stroke="none" stroke-width="1" fill="none" fill-rule="evenodd">
        <g id="PROJECT-PAGE_mob" transform="translate(-32.000000, -2680.000000)" fill="#008F4C">
            <path d="M44.1488538,2702 C49.7312522,2702 54.2728987,2697.514 54.2728987,2692 C54.2728987,2686.486 49.7312522,2682 44.1488538,2682 C38.5654431,2682 34.024809,2686.486 34.024809,2692 C34.024809,2697.514 38.5654431,2702 44.1488538,2702 Z M44.1488538,2680 C50.8580584,2680 56.2977077,2685.373 56.2977077,2692 C56.2977077,2698.628 50.8580584,2704 44.1488538,2704 C37.4386369,2704 32,2698.628 32,2692 C32,2685.373 37.4386369,2680 44.1488538,2680 Z M46.0106657,2690.93 C46.7314977,2690.93 47.3176799,2690.351 47.3176799,2689.639 C47.3176799,2688.928 46.7314977,2688.349 46.0106657,2688.349 L43.3450047,2688.349 L43.3450047,2690.93 L46.0106657,2690.93 Z M46.0106657,2686.262 C47.8967752,2686.262 49.430568,2687.776 49.430568,2689.639 C49.430568,2691.502 47.8967752,2693.017 46.0106657,2693.017 L43.3450047,2693.017 L43.3450047,2693.9 L45.2047917,2693.9 C45.7889491,2693.9 46.261742,2694.368 46.261742,2694.944 C46.261742,2695.521 45.7889491,2695.987 45.2047917,2695.987 L43.3450047,2695.987 L43.3450047,2697.884 C43.3450047,2698.46 42.8711994,2698.927 42.2880544,2698.927 C41.7049094,2698.927 41.2321165,2698.46 41.2321165,2697.884 L41.2321165,2695.987 L39.6669392,2695.987 C39.0827818,2695.987 38.6110013,2695.521 38.6110013,2694.944 C38.6110013,2694.368 39.0827818,2693.9 39.6669392,2693.9 L41.2321165,2693.9 L41.2321165,2693.017 L39.6669392,2693.017 C39.0827818,2693.017 38.6110013,2692.55 38.6110013,2691.974 C38.6110013,2691.397 39.0827818,2690.93 39.6669392,2690.93 L41.2321165,2690.93 L41.2321165,2687.305 C41.2321165,2686.729 41.7049094,2686.262 42.2880544,2686.262 L46.0106657,2686.262 Z M53.9851943,2702.35425 C53.4993906,2702.08082 53.329973,2701.47017 53.6067894,2700.99032 C53.8836058,2700.51047 54.5018316,2700.34313 54.9876353,2700.61655 C56.4847848,2701.45919 58.1798943,2701.9084 59.9442874,2701.9084 C65.4838764,2701.9084 69.975191,2697.47212 69.975191,2692.0004 C69.975191,2686.52783 65.4840186,2682.0914 59.9442874,2682.0914 C58.1017678,2682.0914 56.3349543,2682.5814 54.7903262,2683.49608 C54.3107681,2683.78006 53.6889441,2683.62627 53.4014435,2683.15259 C53.1139429,2682.67891 53.2696362,2682.0647 53.7491943,2681.78072 C55.6061751,2680.68108 57.7324079,2680.0914 59.9442874,2680.0914 C66.6023185,2680.0914 72,2685.42328 72,2692.0004 C72,2698.57668 66.6021476,2703.9084 59.9442874,2703.9084 C57.8261338,2703.9084 55.7858843,2703.36773 53.9851943,2702.35425 Z" id="Shape"></path>
        </g>
    </g>
</svg>