<?xml version="1.0" encoding="UTF-8"?>
<svg width="32px" height="25px" viewBox="0 0 32 25" version="1.1" xmlns="http://www.w3.org/2000/svg" xmlns:xlink="http://www.w3.org/1999/xlink">
    <!-- Generator: Sketch 52.3 (67297) - http://www.bohemiancoding.com/sketch -->
    <title>Shape</title>
    <desc>Created with Sketch.</desc>
    <g id="MOB" stroke="none" stroke-width="1" fill="none" fill-rule="evenodd">
        <g id="PROJECT-PAGE_mob" transform="translate(-32.000000, -2360.000000)" fill="#008F4C" fill-rule="nonzero">
            <path d="M59.1665242,2382.97923 C60.7169591,2382.97923 61.9742348,2381.72505 61.9742348,2380.17843 L61.9742348,2364.82157 C61.9742348,2363.27433 60.7173505,2362.02077 59.1665242,2362.02077 L36.8324629,2362.02077 C35.281913,2362.02077 34.0257652,2363.27406 34.0257652,2364.82157 L34.0257652,2380.17843 C34.0257652,2381.72532 35.2823043,2382.97923 36.8324629,2382.97923 L59.1665242,2382.97923 Z M59.1665242,2385 L36.8324629,2385 C34.1633389,2385 32,2382.8412 32,2380.17843 L32,2364.82157 C32,2362.1581 34.1630307,2360 36.8324629,2360 L59.1665242,2360 C61.8360667,2360 64,2362.15821 64,2364.82157 L64,2380.17843 C64,2382.84109 61.8357583,2385 59.1665242,2385 Z M37.4019055,2368.70751 C36.8425059,2368.70751 36.3890229,2368.25515 36.3890229,2367.69713 C36.3890229,2367.13911 36.8425059,2366.68674 37.4019055,2366.68674 L58.4688507,2366.68674 C59.0282503,2366.68674 59.4817333,2367.13911 59.4817333,2367.69713 C59.4817333,2368.25515 59.0282503,2368.70751 58.4688507,2368.70751 L37.4019055,2368.70751 Z M37.4019055,2373.53494 C36.8425059,2373.53494 36.3890229,2373.08257 36.3890229,2372.52455 C36.3890229,2371.96653 36.8425059,2371.51417 37.4019055,2371.51417 L58.4688507,2371.51417 C59.0282503,2371.51417 59.4817333,2371.96653 59.4817333,2372.52455 C59.4817333,2373.08257 59.0282503,2373.53494 58.4688507,2373.53494 L37.4019055,2373.53494 Z M37.4019055,2378.36196 C36.8425059,2378.36196 36.3890229,2377.9096 36.3890229,2377.35157 C36.3890229,2376.79355 36.8425059,2376.34119 37.4019055,2376.34119 L48.510189,2376.34119 C49.0695886,2376.34119 49.5230716,2376.79355 49.5230716,2377.35157 C49.5230716,2377.9096 49.0695886,2378.36196 48.510189,2378.36196 L37.4019055,2378.36196 Z" id="Shape"></path>
        </g>
    </g>
</svg>